<svg role="img" aria-label="QR-код на страницу продуктов Т-Банка" version="1.1" viewBox="0 0 65 65" xmlns="http://www.w3.org/2000/svg"><path d="M2,2H3V3H2zM3,2H4V3H3zM4,2H5V3H4zM5,2H6V3H5zM6,2H7V3H6zM7,2H8V3H7zM8,2H9V3H8zM13,2H14V3H13zM14,2H15V3H14zM16,2H17V3H16zM18,2H19V3H18zM20,2H21V3H20zM21,2H22V3H21zM22,2H23V3H22zM23,2H24V3H23zM24,2H25V3H24zM26,2H27V3H26zM27,2H28V3H27zM29,2H30V3H29zM35,2H36V3H35zM37,2H38V3H37zM38,2H39V3H38zM44,2H45V3H44zM47,2H48V3H47zM49,2H50V3H49zM50,2H51V3H50zM53,2H54V3H53zM54,2H55V3H54zM56,2H57V3H56zM57,2H58V3H57zM58,2H59V3H58zM59,2H60V3H59zM60,2H61V3H60zM61,2H62V3H61zM62,2H63V3H62zM2,3H3V4H2zM8,3H9V4H8zM14,3H15V4H14zM15,3H16V4H15zM19,3H20V4H19zM21,3H22V4H21zM22,3H23V4H22zM23,3H24V4H23zM27,3H28V4H27zM28,3H29V4H28zM32,3H33V4H32zM33,3H34V4H33zM34,3H35V4H34zM36,3H37V4H36zM38,3H39V4H38zM39,3H40V4H39zM40,3H41V4H40zM42,3H43V4H42zM45,3H46V4H45zM48,3H49V4H48zM51,3H52V4H51zM53,3H54V4H53zM54,3H55V4H54zM56,3H57V4H56zM62,3H63V4H62zM2,4H3V5H2zM4,4H5V5H4zM5,4H6V5H5zM6,4H7V5H6zM8,4H9V5H8zM10,4H11V5H10zM15,4H16V5H15zM16,4H17V5H16zM17,4H18V5H17zM18,4H19V5H18zM19,4H20V5H19zM20,4H21V5H20zM22,4H23V5H22zM23,4H24V5H23zM24,4H25V5H24zM25,4H26V5H25zM26,4H27V5H26zM29,4H30V5H29zM31,4H32V5H31zM32,4H33V5H32zM34,4H35V5H34zM35,4H36V5H35zM38,4H39V5H38zM41,4H42V5H41zM42,4H43V5H42zM44,4H45V5H44zM45,4H46V5H45zM47,4H48V5H47zM52,4H53V5H52zM53,4H54V5H53zM54,4H55V5H54zM56,4H57V5H56zM58,4H59V5H58zM59,4H60V5H59zM60,4H61V5H60zM62,4H63V5H62zM2,5H3V6H2zM4,5H5V6H4zM5,5H6V6H5zM6,5H7V6H6zM8,5H9V6H8zM10,5H11V6H10zM11,5H12V6H11zM12,5H13V6H12zM14,5H15V6H14zM16,5H17V6H16zM18,5H19V6H18zM21,5H22V6H21zM24,5H25V6H24zM25,5H26V6H25zM27,5H28V6H27zM30,5H31V6H30zM33,5H34V6H33zM34,5H35V6H34zM37,5H38V6H37zM38,5H39V6H38zM39,5H40V6H39zM41,5H42V6H41zM43,5H44V6H43zM44,5H45V6H44zM45,5H46V6H45zM49,5H50V6H49zM50,5H51V6H50zM52,5H53V6H52zM54,5H55V6H54zM56,5H57V6H56zM58,5H59V6H58zM59,5H60V6H59zM60,5H61V6H60zM62,5H63V6H62zM2,6H3V7H2zM4,6H5V7H4zM5,6H6V7H5zM6,6H7V7H6zM8,6H9V7H8zM10,6H11V7H10zM11,6H12V7H11zM13,6H14V7H13zM22,6H23V7H22zM23,6H24V7H23zM24,6H25V7H24zM26,6H27V7H26zM28,6H29V7H28zM29,6H30V7H29zM30,6H31V7H30zM31,6H32V7H31zM32,6H33V7H32zM33,6H34V7H33zM34,6H35V7H34zM35,6H36V7H35zM38,6H39V7H38zM44,6H45V7H44zM45,6H46V7H45zM46,6H47V7H46zM47,6H48V7H47zM51,6H52V7H51zM52,6H53V7H52zM53,6H54V7H53zM56,6H57V7H56zM58,6H59V7H58zM59,6H60V7H59zM60,6H61V7H60zM62,6H63V7H62zM2,7H3V8H2zM8,7H9V8H8zM10,7H11V8H10zM11,7H12V8H11zM17,7H18V8H17zM19,7H20V8H19zM22,7H23V8H22zM25,7H26V8H25zM29,7H30V8H29zM30,7H31V8H30zM34,7H35V8H34zM37,7H38V8H37zM38,7H39V8H38zM39,7H40V8H39zM43,7H44V8H43zM44,7H45V8H44zM45,7H46V8H45zM46,7H47V8H46zM47,7H48V8H47zM49,7H50V8H49zM51,7H52V8H51zM52,7H53V8H52zM56,7H57V8H56zM62,7H63V8H62zM2,8H3V9H2zM3,8H4V9H3zM4,8H5V9H4zM5,8H6V9H5zM6,8H7V9H6zM7,8H8V9H7zM8,8H9V9H8zM10,8H11V9H10zM12,8H13V9H12zM14,8H15V9H14zM16,8H17V9H16zM18,8H19V9H18zM20,8H21V9H20zM22,8H23V9H22zM24,8H25V9H24zM26,8H27V9H26zM28,8H29V9H28zM30,8H31V9H30zM32,8H33V9H32zM34,8H35V9H34zM36,8H37V9H36zM38,8H39V9H38zM40,8H41V9H40zM42,8H43V9H42zM44,8H45V9H44zM46,8H47V9H46zM48,8H49V9H48zM50,8H51V9H50zM52,8H53V9H52zM54,8H55V9H54zM56,8H57V9H56zM57,8H58V9H57zM58,8H59V9H58zM59,8H60V9H59zM60,8H61V9H60zM61,8H62V9H61zM62,8H63V9H62zM10,9H11V10H10zM11,9H12V10H11zM15,9H16V10H15zM17,9H18V10H17zM18,9H19V10H18zM19,9H20V10H19zM20,9H21V10H20zM22,9H23V10H22zM23,9H24V10H23zM28,9H29V10H28zM29,9H30V10H29zM30,9H31V10H30zM34,9H35V10H34zM44,9H45V10H44zM46,9H47V10H46zM48,9H49V10H48zM49,9H50V10H49zM51,9H52V10H51zM53,9H54V10H53zM2,10H3V11H2zM4,10H5V11H4zM5,10H6V11H5zM6,10H7V11H6zM7,10H8V11H7zM8,10H9V11H8zM11,10H12V11H11zM14,10H15V11H14zM17,10H18V11H17zM21,10H22V11H21zM24,10H25V11H24zM27,10H28V11H27zM30,10H31V11H30zM31,10H32V11H31zM32,10H33V11H32zM33,10H34V11H33zM34,10H35V11H34zM35,10H36V11H35zM37,10H38V11H37zM38,10H39V11H38zM39,10H40V11H39zM40,10H41V11H40zM45,10H46V11H45zM47,10H48V11H47zM48,10H49V11H48zM50,10H51V11H50zM51,10H52V11H51zM52,10H53V11H52zM53,10H54V11H53zM54,10H55V11H54zM56,10H57V11H56zM57,10H58V11H57zM58,10H59V11H58zM59,10H60V11H59zM60,10H61V11H60zM2,11H3V12H2zM3,11H4V12H3zM4,11H5V12H4zM5,11H6V12H5zM6,11H7V12H6zM12,11H13V12H12zM14,11H15V12H14zM18,11H19V12H18zM22,11H23V12H22zM23,11H24V12H23zM26,11H27V12H26zM27,11H28V12H27zM28,11H29V12H28zM29,11H30V12H29zM31,11H32V12H31zM33,11H34V12H33zM34,11H35V12H34zM37,11H38V12H37zM38,11H39V12H38zM39,11H40V12H39zM43,11H44V12H43zM44,11H45V12H44zM45,11H46V12H45zM49,11H50V12H49zM50,11H51V12H50zM51,11H52V12H51zM55,11H56V12H55zM56,11H57V12H56zM57,11H58V12H57zM58,11H59V12H58zM61,11H62V12H61zM4,12H5V13H4zM7,12H8V13H7zM8,12H9V13H8zM11,12H12V13H11zM13,12H14V13H13zM14,12H15V13H14zM15,12H16V13H15zM16,12H17V13H16zM17,12H18V13H17zM18,12H19V13H18zM21,12H22V13H21zM25,12H26V13H25zM26,12H27V13H26zM27,12H28V13H27zM30,12H31V13H30zM31,12H32V13H31zM32,12H33V13H32zM35,12H36V13H35zM36,12H37V13H36zM38,12H39V13H38zM39,12H40V13H39zM40,12H41V13H40zM42,12H43V13H42zM43,12H44V13H43zM47,12H48V13H47zM48,12H49V13H48zM49,12H50V13H49zM51,12H52V13H51zM52,12H53V13H52zM53,12H54V13H53zM55,12H56V13H55zM57,12H58V13H57zM58,12H59V13H58zM61,12H62V13H61zM62,12H63V13H62zM2,13H3V14H2zM4,13H5V14H4zM6,13H7V14H6zM7,13H8V14H7zM10,13H11V14H10zM11,13H12V14H11zM14,13H15V14H14zM18,13H19V14H18zM20,13H21V14H20zM24,13H25V14H24zM25,13H26V14H25zM27,13H28V14H27zM29,13H30V14H29zM31,13H32V14H31zM32,13H33V14H32zM34,13H35V14H34zM35,13H36V14H35zM36,13H37V14H36zM37,13H38V14H37zM39,13H40V14H39zM40,13H41V14H40zM42,13H43V14H42zM44,13H45V14H44zM46,13H47V14H46zM48,13H49V14H48zM51,13H52V14H51zM52,13H53V14H52zM53,13H54V14H53zM55,13H56V14H55zM57,13H58V14H57zM58,13H59V14H58zM61,13H62V14H61zM62,13H63V14H62zM2,14H3V15H2zM4,14H5V15H4zM6,14H7V15H6zM7,14H8V15H7zM8,14H9V15H8zM19,14H20V15H19zM21,14H22V15H21zM22,14H23V15H22zM23,14H24V15H23zM24,14H25V15H24zM27,14H28V15H27zM29,14H30V15H29zM30,14H31V15H30zM33,14H34V15H33zM37,14H38V15H37zM38,14H39V15H38zM39,14H40V15H39zM40,14H41V15H40zM43,14H44V15H43zM45,14H46V15H45zM49,14H50V15H49zM50,14H51V15H50zM51,14H52V15H51zM54,14H55V15H54zM55,14H56V15H55zM59,14H60V15H59zM60,14H61V15H60zM61,14H62V15H61zM62,14H63V15H62zM2,15H3V16H2zM4,15H5V16H4zM6,15H7V16H6zM10,15H11V16H10zM12,15H13V16H12zM16,15H17V16H16zM19,15H20V16H19zM20,15H21V16H20zM27,15H28V16H27zM32,15H33V16H32zM33,15H34V16H33zM34,15H35V16H34zM39,15H40V16H39zM43,15H44V16H43zM44,15H45V16H44zM45,15H46V16H45zM46,15H47V16H46zM49,15H50V16H49zM50,15H51V16H50zM51,15H52V16H51zM53,15H54V16H53zM55,15H56V16H55zM56,15H57V16H56zM57,15H58V16H57zM58,15H59V16H58zM61,15H62V16H61zM3,16H4V17H3zM5,16H6V17H5zM7,16H8V17H7zM8,16H9V17H8zM9,16H10V17H9zM10,16H11V17H10zM13,16H14V17H13zM14,16H15V17H14zM19,16H20V17H19zM20,16H21V17H20zM21,16H22V17H21zM22,16H23V17H22zM23,16H24V17H23zM24,16H25V17H24zM25,16H26V17H25zM27,16H28V17H27zM30,16H31V17H30zM31,16H32V17H31zM35,16H36V17H35zM36,16H37V17H36zM38,16H39V17H38zM40,16H41V17H40zM43,16H44V17H43zM45,16H46V17H45zM46,16H47V17H46zM48,16H49V17H48zM50,16H51V17H50zM52,16H53V17H52zM55,16H56V17H55zM61,16H62V17H61zM62,16H63V17H62zM6,17H7V18H6zM9,17H10V18H9zM10,17H11V18H10zM15,17H16V18H15zM18,17H19V18H18zM20,17H21V18H20zM23,17H24V18H23zM28,17H29V18H28zM31,17H32V18H31zM32,17H33V18H32zM33,17H34V18H33zM35,17H36V18H35zM36,17H37V18H36zM38,17H39V18H38zM39,17H40V18H39zM41,17H42V18H41zM43,17H44V18H43zM50,17H51V18H50zM51,17H52V18H51zM52,17H53V18H52zM55,17H56V18H55zM57,17H58V18H57zM58,17H59V18H58zM62,17H63V18H62zM2,18H3V19H2zM3,18H4V19H3zM8,18H9V19H8zM9,18H10V19H9zM14,18H15V19H14zM15,18H16V19H15zM16,18H17V19H16zM18,18H19V19H18zM20,18H21V19H20zM21,18H22V19H21zM25,18H26V19H25zM32,18H33V19H32zM33,18H34V19H33zM34,18H35V19H34zM37,18H38V19H37zM40,18H41V19H40zM42,18H43V19H42zM43,18H44V19H43zM45,18H46V19H45zM46,18H47V19H46zM49,18H50V19H49zM50,18H51V19H50zM51,18H52V19H51zM53,18H54V19H53zM54,18H55V19H54zM55,18H56V19H55zM60,18H61V19H60zM61,18H62V19H61zM62,18H63V19H62zM4,19H5V20H4zM6,19H7V20H6zM9,19H10V20H9zM10,19H11V20H10zM11,19H12V20H11zM12,19H13V20H12zM15,19H16V20H15zM18,19H19V20H18zM22,19H23V20H22zM23,19H24V20H23zM25,19H26V20H25zM26,19H27V20H26zM28,19H29V20H28zM29,19H30V20H29zM31,19H32V20H31zM32,19H33V20H32zM34,19H35V20H34zM39,19H40V20H39zM41,19H42V20H41zM42,19H43V20H42zM43,19H44V20H43zM44,19H45V20H44zM46,19H47V20H46zM51,19H52V20H51zM55,19H56V20H55zM56,19H57V20H56zM57,19H58V20H57zM59,19H60V20H59zM60,19H61V20H60zM3,20H4V21H3zM4,20H5V21H4zM7,20H8V21H7zM8,20H9V21H8zM11,20H12V21H11zM12,20H13V21H12zM13,20H14V21H13zM14,20H15V21H14zM15,20H16V21H15zM16,20H17V21H16zM18,20H19V21H18zM19,20H20V21H19zM21,20H22V21H21zM22,20H23V21H22zM23,20H24V21H23zM24,20H25V21H24zM27,20H28V21H27zM28,20H29V21H28zM29,20H30V21H29zM30,20H31V21H30zM31,20H32V21H31zM33,20H34V21H33zM35,20H36V21H35zM36,20H37V21H36zM37,20H38V21H37zM40,20H41V21H40zM42,20H43V21H42zM45,20H46V21H45zM46,20H47V21H46zM48,20H49V21H48zM51,20H52V21H51zM52,20H53V21H52zM54,20H55V21H54zM56,20H57V21H56zM57,20H58V21H57zM58,20H59V21H58zM59,20H60V21H59zM61,20H62V21H61zM62,20H63V21H62zM2,21H3V22H2zM4,21H5V22H4zM5,21H6V22H5zM9,21H10V22H9zM11,21H12V22H11zM13,21H14V22H13zM14,21H15V22H14zM19,21H20V22H19zM20,21H21V22H20zM23,21H24V22H23zM24,21H25V22H24zM25,21H26V22H25zM26,21H27V22H26zM28,21H29V22H28zM32,21H33V22H32zM33,21H34V22H33zM34,21H35V22H34zM35,21H36V22H35zM40,21H41V22H40zM41,21H42V22H41zM42,21H43V22H42zM43,21H44V22H43zM46,21H47V22H46zM47,21H48V22H47zM49,21H50V22H49zM51,21H52V22H51zM54,21H55V22H54zM58,21H59V22H58zM2,22H3V23H2zM3,22H4V23H3zM5,22H6V23H5zM6,22H7V23H6zM8,22H9V23H8zM9,22H10V23H9zM11,22H12V23H11zM15,22H16V23H15zM20,22H21V23H20zM21,22H22V23H21zM22,22H23V23H22zM26,22H27V23H26zM27,22H28V23H27zM28,22H29V23H28zM31,22H32V23H31zM35,22H36V23H35zM36,22H37V23H36zM37,22H38V23H37zM38,22H39V23H38zM41,22H42V23H41zM43,22H44V23H43zM44,22H45V23H44zM45,22H46V23H45zM47,22H48V23H47zM50,22H51V23H50zM51,22H52V23H51zM54,22H55V23H54zM56,22H57V23H56zM57,22H58V23H57zM60,22H61V23H60zM2,23H3V24H2zM4,23H5V24H4zM5,23H6V24H5zM10,23H11V24H10zM11,23H12V24H11zM12,23H13V24H12zM13,23H14V24H13zM17,23H18V24H17zM22,23H23V24H22zM23,23H24V24H23zM25,23H26V24H25zM29,23H30V24H29zM32,23H33V24H32zM34,23H35V24H34zM35,23H36V24H35zM37,23H38V24H37zM38,23H39V24H38zM41,23H42V24H41zM44,23H45V24H44zM47,23H48V24H47zM56,23H57V24H56zM57,23H58V24H57zM58,23H59V24H58zM2,24H3V25H2zM4,24H5V25H4zM6,24H7V25H6zM7,24H8V25H7zM8,24H9V25H8zM9,24H10V25H9zM12,24H13V25H12zM13,24H14V25H13zM14,24H15V25H14zM15,24H16V25H15zM18,24H19V25H18zM19,24H20V25H19zM22,24H23V25H22zM23,24H24V25H23zM25,24H26V25H25zM26,24H27V25H26zM27,24H28V25H27zM28,24H29V25H28zM29,24H30V25H29zM31,24H32V25H31zM32,24H33V25H32zM33,24H34V25H33zM36,24H37V25H36zM37,24H38V25H37zM39,24H40V25H39zM40,24H41V25H40zM41,24H42V25H41zM42,24H43V25H42zM43,24H44V25H43zM46,24H47V25H46zM47,24H48V25H47zM48,24H49V25H48zM49,24H50V25H49zM50,24H51V25H50zM51,24H52V25H51zM52,24H53V25H52zM54,24H55V25H54zM61,24H62V25H61zM62,24H63V25H62zM2,25H3V26H2zM5,25H6V26H5zM6,25H7V26H6zM7,25H8V26H7zM9,25H10V26H9zM13,25H14V26H13zM14,25H15V26H14zM17,25H18V26H17zM18,25H19V26H18zM19,25H20V26H19zM21,25H22V26H21zM23,25H24V26H23zM24,25H25V26H24zM25,25H26V26H25zM26,25H27V26H26zM30,25H31V26H30zM32,25H33V26H32zM33,25H34V26H33zM34,25H35V26H34zM36,25H37V26H36zM37,25H38V26H37zM39,25H40V26H39zM40,25H41V26H40zM41,25H42V26H41zM42,25H43V26H42zM43,25H44V26H43zM46,25H47V26H46zM48,25H49V26H48zM52,25H53V26H52zM58,25H59V26H58zM2,26H3V27H2zM3,26H4V27H3zM4,26H5V27H4zM5,26H6V27H5zM7,26H8V27H7zM8,26H9V27H8zM10,26H11V27H10zM11,26H12V27H11zM13,26H14V27H13zM14,26H15V27H14zM15,26H16V27H15zM16,26H17V27H16zM18,26H19V27H18zM19,26H20V27H19zM22,26H23V27H22zM23,26H24V27H23zM24,26H25V27H24zM26,26H27V27H26zM29,26H30V27H29zM30,26H31V27H30zM31,26H32V27H31zM32,26H33V27H32zM35,26H36V27H35zM36,26H37V27H36zM37,26H38V27H37zM38,26H39V27H38zM40,26H41V27H40zM45,26H46V27H45zM47,26H48V27H47zM48,26H49V27H48zM49,26H50V27H49zM50,26H51V27H50zM54,26H55V27H54zM57,26H58V27H57zM59,26H60V27H59zM60,26H61V27H60zM61,26H62V27H61zM2,27H3V28H2zM10,27H11V28H10zM11,27H12V28H11zM12,27H13V28H12zM19,27H20V28H19zM20,27H21V28H20zM25,27H26V28H25zM28,27H29V28H28zM30,27H31V28H30zM33,27H34V28H33zM36,27H37V28H36zM39,27H40V28H39zM40,27H41V28H40zM43,27H44V28H43zM45,27H46V28H45zM46,27H47V28H46zM48,27H49V28H48zM50,27H51V28H50zM53,27H54V28H53zM56,27H57V28H56zM57,27H58V28H57zM58,27H59V28H58zM2,28H3V29H2zM3,28H4V29H3zM4,28H5V29H4zM6,28H7V29H6zM7,28H8V29H7zM8,28H9V29H8zM10,28H11V29H10zM11,28H12V29H11zM13,28H14V29H13zM16,28H17V29H16zM17,28H18V29H17zM19,28H20V29H19zM21,28H22V29H21zM23,28H24V29H23zM24,28H25V29H24zM27,28H28V29H27zM30,28H31V29H30zM31,28H32V29H31zM32,28H33V29H32zM35,28H36V29H35zM37,28H38V29H37zM42,28H43V29H42zM44,28H45V29H44zM46,28H47V29H46zM47,28H48V29H47zM49,28H50V29H49zM50,28H51V29H50zM51,28H52V29H51zM52,28H53V29H52zM53,28H54V29H53zM59,28H60V29H59zM61,28H62V29H61zM62,28H63V29H62zM3,29H4V30H3zM4,29H5V30H4zM5,29H6V30H5zM6,29H7V30H6zM9,29H10V30H9zM13,29H14V30H13zM14,29H15V30H14zM15,29H16V30H15zM16,29H17V30H16zM17,29H18V30H17zM18,29H19V30H18zM19,29H20V30H19zM20,29H21V30H20zM24,29H25V30H24zM25,29H26V30H25zM29,29H30V30H29zM31,29H32V30H31zM32,29H33V30H32zM33,29H34V30H33zM36,29H37V30H36zM41,29H42V30H41zM42,29H43V30H42zM43,29H44V30H43zM44,29H45V30H44zM46,29H47V30H46zM47,29H48V30H47zM48,29H49V30H48zM51,29H52V30H51zM53,29H54V30H53zM55,29H56V30H55zM56,29H57V30H56zM57,29H58V30H57zM58,29H59V30H58zM61,29H62V30H61zM2,30H3V31H2zM3,30H4V31H3zM4,30H5V31H4zM6,30H7V31H6zM7,30H8V31H7zM8,30H9V31H8zM9,30H10V31H9zM10,30H11V31H10zM13,30H14V31H13zM16,30H17V31H16zM17,30H18V31H17zM19,30H20V31H19zM20,30H21V31H20zM21,30H22V31H21zM23,30H24V31H23zM25,30H26V31H25zM27,30H28V31H27zM29,30H30V31H29zM30,30H31V31H30zM31,30H32V31H31zM32,30H33V31H32zM33,30H34V31H33zM34,30H35V31H34zM35,30H36V31H35zM36,30H37V31H36zM37,30H38V31H37zM38,30H39V31H38zM39,30H40V31H39zM40,30H41V31H40zM43,30H44V31H43zM44,30H45V31H44zM45,30H46V31H45zM48,30H49V31H48zM49,30H50V31H49zM50,30H51V31H50zM51,30H52V31H51zM52,30H53V31H52zM54,30H55V31H54zM55,30H56V31H55zM56,30H57V31H56zM57,30H58V31H57zM58,30H59V31H58zM59,30H60V31H59zM60,30H61V31H60zM61,30H62V31H61zM62,30H63V31H62zM3,31H4V32H3zM4,31H5V32H4zM5,31H6V32H5zM6,31H7V32H6zM10,31H11V32H10zM12,31H13V32H12zM14,31H15V32H14zM15,31H16V32H15zM16,31H17V32H16zM18,31H19V32H18zM19,31H20V32H19zM20,31H21V32H20zM22,31H23V32H22zM23,31H24V32H23zM25,31H26V32H25zM26,31H27V32H26zM28,31H29V32H28zM29,31H30V32H29zM30,31H31V32H30zM34,31H35V32H34zM38,31H39V32H38zM41,31H42V32H41zM43,31H44V32H43zM44,31H45V32H44zM46,31H47V32H46zM47,31H48V32H47zM49,31H50V32H49zM50,31H51V32H50zM54,31H55V32H54zM58,31H59V32H58zM60,31H61V32H60zM61,31H62V32H61zM2,32H3V33H2zM6,32H7V33H6zM8,32H9V33H8zM10,32H11V33H10zM12,32H13V33H12zM13,32H14V33H13zM15,32H16V33H15zM16,32H17V33H16zM17,32H18V33H17zM19,32H20V33H19zM20,32H21V33H20zM22,32H23V33H22zM28,32H29V33H28zM30,32H31V33H30zM32,32H33V33H32zM34,32H35V33H34zM35,32H36V33H35zM36,32H37V33H36zM38,32H39V33H38zM40,32H41V33H40zM43,32H44V33H43zM45,32H46V33H45zM46,32H47V33H46zM47,32H48V33H47zM48,32H49V33H48zM49,32H50V33H49zM50,32H51V33H50zM52,32H53V33H52zM53,32H54V33H53zM54,32H55V33H54zM56,32H57V33H56zM58,32H59V33H58zM59,32H60V33H59zM60,32H61V33H60zM61,32H62V33H61zM62,32H63V33H62zM3,33H4V34H3zM5,33H6V34H5zM6,33H7V34H6zM10,33H11V34H10zM11,33H12V34H11zM16,33H17V34H16zM19,33H20V34H19zM21,33H22V34H21zM23,33H24V34H23zM24,33H25V34H24zM26,33H27V34H26zM29,33H30V34H29zM30,33H31V34H30zM34,33H35V34H34zM37,33H38V34H37zM41,33H42V34H41zM42,33H43V34H42zM43,33H44V34H43zM44,33H45V34H44zM46,33H47V34H46zM47,33H48V34H47zM51,33H52V34H51zM53,33H54V34H53zM54,33H55V34H54zM58,33H59V34H58zM6,34H7V35H6zM7,34H8V35H7zM8,34H9V35H8zM9,34H10V35H9zM10,34H11V35H10zM14,34H15V35H14zM15,34H16V35H15zM16,34H17V35H16zM21,34H22V35H21zM22,34H23V35H22zM30,34H31V35H30zM31,34H32V35H31zM32,34H33V35H32zM33,34H34V35H33zM34,34H35V35H34zM36,34H37V35H36zM37,34H38V35H37zM38,34H39V35H38zM39,34H40V35H39zM40,34H41V35H40zM44,34H45V35H44zM47,34H48V35H47zM49,34H50V35H49zM50,34H51V35H50zM51,34H52V35H51zM54,34H55V35H54zM55,34H56V35H55zM56,34H57V35H56zM57,34H58V35H57zM58,34H59V35H58zM60,34H61V35H60zM61,34H62V35H61zM62,34H63V35H62zM3,35H4V36H3zM4,35H5V36H4zM5,35H6V36H5zM6,35H7V36H6zM7,35H8V36H7zM9,35H10V36H9zM10,35H11V36H10zM11,35H12V36H11zM13,35H14V36H13zM16,35H17V36H16zM17,35H18V36H17zM18,35H19V36H18zM19,35H20V36H19zM24,35H25V36H24zM25,35H26V36H25zM26,35H27V36H26zM27,35H28V36H27zM28,35H29V36H28zM31,35H32V36H31zM37,35H38V36H37zM38,35H39V36H38zM39,35H40V36H39zM41,35H42V36H41zM42,35H43V36H42zM44,35H45V36H44zM45,35H46V36H45zM51,35H52V36H51zM53,35H54V36H53zM54,35H55V36H54zM55,35H56V36H55zM56,35H57V36H56zM59,35H60V36H59zM2,36H3V37H2zM3,36H4V37H3zM7,36H8V37H7zM8,36H9V37H8zM10,36H11V37H10zM14,36H15V37H14zM15,36H16V37H15zM19,36H20V37H19zM21,36H22V37H21zM22,36H23V37H22zM24,36H25V37H24zM27,36H28V37H27zM29,36H30V37H29zM31,36H32V37H31zM32,36H33V37H32zM33,36H34V37H33zM34,36H35V37H34zM35,36H36V37H35zM36,36H37V37H36zM38,36H39V37H38zM40,36H41V37H40zM42,36H43V37H42zM45,36H46V37H45zM48,36H49V37H48zM50,36H51V37H50zM52,36H53V37H52zM55,36H56V37H55zM56,36H57V37H56zM57,36H58V37H57zM58,36H59V37H58zM59,36H60V37H59zM60,36H61V37H60zM61,36H62V37H61zM62,36H63V37H62zM3,37H4V38H3zM4,37H5V38H4zM6,37H7V38H6zM7,37H8V38H7zM9,37H10V38H9zM11,37H12V38H11zM12,37H13V38H12zM14,37H15V38H14zM16,37H17V38H16zM19,37H20V38H19zM22,37H23V38H22zM25,37H26V38H25zM26,37H27V38H26zM28,37H29V38H28zM29,37H30V38H29zM30,37H31V38H30zM31,37H32V38H31zM32,37H33V38H32zM37,37H38V38H37zM38,37H39V38H38zM44,37H45V38H44zM45,37H46V38H45zM47,37H48V38H47zM49,37H50V38H49zM50,37H51V38H50zM54,37H55V38H54zM55,37H56V38H55zM61,37H62V38H61zM2,38H3V39H2zM3,38H4V39H3zM8,38H9V39H8zM9,38H10V39H9zM11,38H12V39H11zM12,38H13V39H12zM14,38H15V39H14zM17,38H18V39H17zM18,38H19V39H18zM24,38H25V39H24zM25,38H26V39H25zM27,38H28V39H27zM29,38H30V39H29zM32,38H33V39H32zM34,38H35V39H34zM35,38H36V39H35zM38,38H39V39H38zM39,38H40V39H39zM41,38H42V39H41zM43,38H44V39H43zM44,38H45V39H44zM47,38H48V39H47zM48,38H49V39H48zM49,38H50V39H49zM50,38H51V39H50zM53,38H54V39H53zM54,38H55V39H54zM55,38H56V39H55zM56,38H57V39H56zM57,38H58V39H57zM58,38H59V39H58zM59,38H60V39H59zM61,38H62V39H61zM2,39H3V40H2zM12,39H13V40H12zM16,39H17V40H16zM17,39H18V40H17zM19,39H20V40H19zM22,39H23V40H22zM23,39H24V40H23zM25,39H26V40H25zM26,39H27V40H26zM27,39H28V40H27zM28,39H29V40H28zM30,39H31V40H30zM35,39H36V40H35zM37,39H38V40H37zM38,39H39V40H38zM39,39H40V40H39zM43,39H44V40H43zM44,39H45V40H44zM45,39H46V40H45zM49,39H50V40H49zM50,39H51V40H50zM51,39H52V40H51zM55,39H56V40H55zM56,39H57V40H56zM57,39H58V40H57zM61,39H62V40H61zM62,39H63V40H62zM2,40H3V41H2zM3,40H4V41H3zM7,40H8V41H7zM8,40H9V41H8zM9,40H10V41H9zM10,40H11V41H10zM13,40H14V41H13zM14,40H15V41H14zM20,40H21V41H20zM22,40H23V41H22zM24,40H25V41H24zM29,40H30V41H29zM31,40H32V41H31zM34,40H35V41H34zM36,40H37V41H36zM38,40H39V41H38zM40,40H41V41H40zM41,40H42V41H41zM43,40H44V41H43zM44,40H45V41H44zM52,40H53V41H52zM53,40H54V41H53zM54,40H55V41H54zM55,40H56V41H55zM56,40H57V41H56zM59,40H60V41H59zM61,40H62V41H61zM5,41H6V42H5zM7,41H8V42H7zM9,41H10V42H9zM12,41H13V42H12zM13,41H14V42H13zM14,41H15V42H14zM15,41H16V42H15zM16,41H17V42H16zM17,41H18V42H17zM18,41H19V42H18zM19,41H20V42H19zM20,41H21V42H20zM23,41H24V42H23zM24,41H25V42H24zM26,41H27V42H26zM27,41H28V42H27zM29,41H30V42H29zM32,41H33V42H32zM35,41H36V42H35zM36,41H37V42H36zM42,41H43V42H42zM43,41H44V42H43zM44,41H45V42H44zM45,41H46V42H45zM46,41H47V42H46zM48,41H49V42H48zM49,41H50V42H49zM53,41H54V42H53zM54,41H55V42H54zM55,41H56V42H55zM62,41H63V42H62zM2,42H3V43H2zM3,42H4V43H3zM7,42H8V43H7zM8,42H9V43H8zM9,42H10V43H9zM10,42H11V43H10zM11,42H12V43H11zM12,42H13V43H12zM15,42H16V43H15zM18,42H19V43H18zM19,42H20V43H19zM20,42H21V43H20zM25,42H26V43H25zM26,42H27V43H26zM29,42H30V43H29zM32,42H33V43H32zM33,42H34V43H33zM34,42H35V43H34zM38,42H39V43H38zM41,42H42V43H41zM44,42H45V43H44zM50,42H51V43H50zM53,42H54V43H53zM54,42H55V43H54zM57,42H58V43H57zM58,42H59V43H58zM60,42H61V43H60zM62,42H63V43H62zM2,43H3V44H2zM3,43H4V44H3zM4,43H5V44H4zM9,43H10V44H9zM10,43H11V44H10zM11,43H12V44H11zM13,43H14V44H13zM15,43H16V44H15zM16,43H17V44H16zM17,43H18V44H17zM19,43H20V44H19zM21,43H22V44H21zM22,43H23V44H22zM23,43H24V44H23zM26,43H27V44H26zM27,43H28V44H27zM30,43H31V44H30zM31,43H32V44H31zM33,43H34V44H33zM35,43H36V44H35zM37,43H38V44H37zM38,43H39V44H38zM42,43H43V44H42zM44,43H45V44H44zM45,43H46V44H45zM46,43H47V44H46zM47,43H48V44H47zM51,43H52V44H51zM53,43H54V44H53zM54,43H55V44H54zM55,43H56V44H55zM56,43H57V44H56zM59,43H60V44H59zM5,44H6V45H5zM6,44H7V45H6zM7,44H8V45H7zM8,44H9V45H8zM9,44H10V45H9zM10,44H11V45H10zM13,44H14V45H13zM19,44H20V45H19zM22,44H23V45H22zM23,44H24V45H23zM25,44H26V45H25zM26,44H27V45H26zM27,44H28V45H27zM28,44H29V45H28zM29,44H30V45H29zM30,44H31V45H30zM32,44H33V45H32zM33,44H34V45H33zM34,44H35V45H34zM36,44H37V45H36zM37,44H38V45H37zM38,44H39V45H38zM39,44H40V45H39zM40,44H41V45H40zM43,44H44V45H43zM45,44H46V45H45zM48,44H49V45H48zM49,44H50V45H49zM50,44H51V45H50zM52,44H53V45H52zM54,44H55V45H54zM55,44H56V45H55zM56,44H57V45H56zM60,44H61V45H60zM61,44H62V45H61zM62,44H63V45H62zM4,45H5V46H4zM5,45H6V46H5zM7,45H8V46H7zM9,45H10V46H9zM12,45H13V46H12zM14,45H15V46H14zM19,45H20V46H19zM21,45H22V46H21zM22,45H23V46H22zM24,45H25V46H24zM26,45H27V46H26zM27,45H28V46H27zM30,45H31V46H30zM32,45H33V46H32zM33,45H34V46H33zM35,45H36V46H35zM41,45H42V46H41zM42,45H43V46H42zM44,45H45V46H44zM46,45H47V46H46zM47,45H48V46H47zM49,45H50V46H49zM54,45H55V46H54zM57,45H58V46H57zM62,45H63V46H62zM3,46H4V47H3zM5,46H6V47H5zM8,46H9V47H8zM10,46H11V47H10zM12,46H13V47H12zM13,46H14V47H13zM15,46H16V47H15zM16,46H17V47H16zM17,46H18V47H17zM18,46H19V47H18zM19,46H20V47H19zM20,46H21V47H20zM24,46H25V47H24zM25,46H26V47H25zM27,46H28V47H27zM30,46H31V47H30zM31,46H32V47H31zM32,46H33V47H32zM33,46H34V47H33zM37,46H38V47H37zM38,46H39V47H38zM39,46H40V47H39zM43,46H44V47H43zM44,46H45V47H44zM45,46H46V47H45zM49,46H50V47H49zM50,46H51V47H50zM53,46H54V47H53zM54,46H55V47H54zM55,46H56V47H55zM57,46H58V47H57zM58,46H59V47H58zM60,46H61V47H60zM61,46H62V47H61zM62,46H63V47H62zM2,47H3V48H2zM7,47H8V48H7zM11,47H12V48H11zM15,47H16V48H15zM17,47H18V48H17zM18,47H19V48H18zM19,47H20V48H19zM20,47H21V48H20zM21,47H22V48H21zM23,47H24V48H23zM25,47H26V48H25zM26,47H27V48H26zM27,47H28V48H27zM28,47H29V48H28zM29,47H30V48H29zM33,47H34V48H33zM34,47H35V48H34zM35,47H36V48H35zM37,47H38V48H37zM38,47H39V48H38zM42,47H43V48H42zM44,47H45V48H44zM46,47H47V48H46zM47,47H48V48H47zM54,47H55V48H54zM55,47H56V48H55zM56,47H57V48H56zM57,47H58V48H57zM60,47H61V48H60zM2,48H3V49H2zM5,48H6V49H5zM6,48H7V49H6zM7,48H8V49H7zM8,48H9V49H8zM9,48H10V49H9zM13,48H14V49H13zM17,48H18V49H17zM18,48H19V49H18zM21,48H22V49H21zM24,48H25V49H24zM25,48H26V49H25zM26,48H27V49H26zM27,48H28V49H27zM28,48H29V49H28zM29,48H30V49H29zM30,48H31V49H30zM31,48H32V49H31zM33,48H34V49H33zM34,48H35V49H34zM37,48H38V49H37zM38,48H39V49H38zM39,48H40V49H39zM41,48H42V49H41zM43,48H44V49H43zM44,48H45V49H44zM50,48H51V49H50zM51,48H52V49H51zM52,48H53V49H52zM54,48H55V49H54zM56,48H57V49H56zM57,48H58V49H57zM58,48H59V49H58zM61,48H62V49H61zM62,48H63V49H62zM5,49H6V50H5zM10,49H11V50H10zM13,49H14V50H13zM18,49H19V50H18zM19,49H20V50H19zM22,49H23V50H22zM23,49H24V50H23zM24,49H25V50H24zM26,49H27V50H26zM28,49H29V50H28zM29,49H30V50H29zM33,49H34V50H33zM37,49H38V50H37zM39,49H40V50H39zM40,49H41V50H40zM42,49H43V50H42zM44,49H45V50H44zM46,49H47V50H46zM48,49H49V50H48zM49,49H50V50H49zM51,49H52V50H51zM52,49H53V50H52zM55,49H56V50H55zM61,49H62V50H61zM62,49H63V50H62zM2,50H3V51H2zM3,50H4V51H3zM4,50H5V51H4zM5,50H6V51H5zM7,50H8V51H7zM8,50H9V51H8zM10,50H11V51H10zM12,50H13V51H12zM15,50H16V51H15zM21,50H22V51H21zM22,50H23V51H22zM23,50H24V51H23zM24,50H25V51H24zM27,50H28V51H27zM29,50H30V51H29zM31,50H32V51H31zM34,50H35V51H34zM37,50H38V51H37zM38,50H39V51H38zM39,50H40V51H39zM40,50H41V51H40zM43,50H44V51H43zM47,50H48V51H47zM48,50H49V51H48zM49,50H50V51H49zM50,50H51V51H50zM52,50H53V51H52zM53,50H54V51H53zM54,50H55V51H54zM55,50H56V51H55zM57,50H58V51H57zM58,50H59V51H58zM62,50H63V51H62zM4,51H5V52H4zM7,51H8V52H7zM9,51H10V52H9zM11,51H12V52H11zM13,51H14V52H13zM14,51H15V52H14zM16,51H17V52H16zM20,51H21V52H20zM21,51H22V52H21zM22,51H23V52H22zM26,51H27V52H26zM28,51H29V52H28zM30,51H31V52H30zM32,51H33V52H32zM37,51H38V52H37zM38,51H39V52H38zM39,51H40V52H39zM43,51H44V52H43zM44,51H45V52H44zM46,51H47V52H46zM49,51H50V52H49zM50,51H51V52H50zM51,51H52V52H51zM53,51H54V52H53zM55,51H56V52H55zM57,51H58V52H57zM4,52H5V53H4zM5,52H6V53H5zM6,52H7V53H6zM7,52H8V53H7zM8,52H9V53H8zM9,52H10V53H9zM10,52H11V53H10zM11,52H12V53H11zM12,52H13V53H12zM13,52H14V53H13zM20,52H21V53H20zM22,52H23V53H22zM24,52H25V53H24zM29,52H30V53H29zM30,52H31V53H30zM32,52H33V53H32zM36,52H37V53H36zM37,52H38V53H37zM39,52H40V53H39zM40,52H41V53H40zM48,52H49V53H48zM51,52H52V53H51zM52,52H53V53H52zM53,52H54V53H53zM54,52H55V53H54zM56,52H57V53H56zM57,52H58V53H57zM58,52H59V53H58zM59,52H60V53H59zM62,52H63V53H62zM2,53H3V54H2zM3,53H4V54H3zM4,53H5V54H4zM6,53H7V54H6zM9,53H10V54H9zM10,53H11V54H10zM11,53H12V54H11zM12,53H13V54H12zM13,53H14V54H13zM15,53H16V54H15zM16,53H17V54H16zM19,53H20V54H19zM26,53H27V54H26zM29,53H30V54H29zM30,53H31V54H30zM32,53H33V54H32zM33,53H34V54H33zM34,53H35V54H34zM36,53H37V54H36zM41,53H42V54H41zM42,53H43V54H42zM43,53H44V54H43zM44,53H45V54H44zM45,53H46V54H45zM46,53H47V54H46zM51,53H52V54H51zM57,53H58V54H57zM58,53H59V54H58zM61,53H62V54H61zM2,54H3V55H2zM3,54H4V55H3zM4,54H5V55H4zM5,54H6V55H5zM8,54H9V55H8zM10,54H11V55H10zM11,54H12V55H11zM13,54H14V55H13zM14,54H15V55H14zM15,54H16V55H15zM16,54H17V55H16zM17,54H18V55H17zM18,54H19V55H18zM20,54H21V55H20zM21,54H22V55H21zM22,54H23V55H22zM23,54H24V55H23zM24,54H25V55H24zM25,54H26V55H25zM27,54H28V55H27zM29,54H30V55H29zM30,54H31V55H30zM31,54H32V55H31zM32,54H33V55H32zM33,54H34V55H33zM34,54H35V55H34zM35,54H36V55H35zM36,54H37V55H36zM37,54H38V55H37zM38,54H39V55H38zM39,54H40V55H39zM45,54H46V55H45zM47,54H48V55H47zM49,54H50V55H49zM50,54H51V55H50zM53,54H54V55H53zM54,54H55V55H54zM55,54H56V55H55zM56,54H57V55H56zM57,54H58V55H57zM58,54H59V55H58zM62,54H63V55H62zM10,55H11V56H10zM11,55H12V56H11zM19,55H20V56H19zM23,55H24V56H23zM25,55H26V56H25zM26,55H27V56H26zM30,55H31V56H30zM34,55H35V56H34zM35,55H36V56H35zM38,55H39V56H38zM39,55H40V56H39zM43,55H44V56H43zM44,55H45V56H44zM46,55H47V56H46zM50,55H51V56H50zM51,55H52V56H51zM53,55H54V56H53zM54,55H55V56H54zM58,55H59V56H58zM59,55H60V56H59zM60,55H61V56H60zM2,56H3V57H2zM3,56H4V57H3zM4,56H5V57H4zM5,56H6V57H5zM6,56H7V57H6zM7,56H8V57H7zM8,56H9V57H8zM13,56H14V57H13zM14,56H15V57H14zM15,56H16V57H15zM18,56H19V57H18zM19,56H20V57H19zM21,56H22V57H21zM22,56H23V57H22zM24,56H25V57H24zM25,56H26V57H25zM26,56H27V57H26zM30,56H31V57H30zM32,56H33V57H32zM34,56H35V57H34zM36,56H37V57H36zM38,56H39V57H38zM40,56H41V57H40zM41,56H42V57H41zM42,56H43V57H42zM43,56H44V57H43zM48,56H49V57H48zM49,56H50V57H49zM50,56H51V57H50zM52,56H53V57H52zM53,56H54V57H53zM54,56H55V57H54zM56,56H57V57H56zM58,56H59V57H58zM61,56H62V57H61zM62,56H63V57H62zM2,57H3V58H2zM8,57H9V58H8zM10,57H11V58H10zM17,57H18V58H17zM18,57H19V58H18zM19,57H20V58H19zM21,57H22V58H21zM22,57H23V58H22zM23,57H24V58H23zM24,57H25V58H24zM25,57H26V58H25zM26,57H27V58H26zM29,57H30V58H29zM30,57H31V58H30zM34,57H35V58H34zM36,57H37V58H36zM38,57H39V58H38zM39,57H40V58H39zM41,57H42V58H41zM43,57H44V58H43zM48,57H49V58H48zM49,57H50V58H49zM50,57H51V58H50zM54,57H55V58H54zM58,57H59V58H58zM2,58H3V59H2zM4,58H5V59H4zM5,58H6V59H5zM6,58H7V59H6zM8,58H9V59H8zM10,58H11V59H10zM13,58H14V59H13zM15,58H16V59H15zM16,58H17V59H16zM18,58H19V59H18zM21,58H22V59H21zM22,58H23V59H22zM23,58H24V59H23zM24,58H25V59H24zM25,58H26V59H25zM27,58H28V59H27zM29,58H30V59H29zM30,58H31V59H30zM31,58H32V59H31zM32,58H33V59H32zM33,58H34V59H33zM34,58H35V59H34zM37,58H38V59H37zM39,58H40V59H39zM40,58H41V59H40zM42,58H43V59H42zM43,58H44V59H43zM45,58H46V59H45zM46,58H47V59H46zM48,58H49V59H48zM49,58H50V59H49zM50,58H51V59H50zM51,58H52V59H51zM53,58H54V59H53zM54,58H55V59H54zM55,58H56V59H55zM56,58H57V59H56zM57,58H58V59H57zM58,58H59V59H58zM59,58H60V59H59zM60,58H61V59H60zM62,58H63V59H62zM2,59H3V60H2zM4,59H5V60H4zM5,59H6V60H5zM6,59H7V60H6zM8,59H9V60H8zM10,59H11V60H10zM13,59H14V60H13zM15,59H16V60H15zM16,59H17V60H16zM18,59H19V60H18zM19,59H20V60H19zM20,59H21V60H20zM25,59H26V60H25zM26,59H27V60H26zM28,59H29V60H28zM29,59H30V60H29zM30,59H31V60H30zM32,59H33V60H32zM34,59H35V60H34zM35,59H36V60H35zM39,59H40V60H39zM41,59H42V60H41zM42,59H43V60H42zM43,59H44V60H43zM44,59H45V60H44zM46,59H47V60H46zM49,59H50V60H49zM50,59H51V60H50zM51,59H52V60H51zM53,59H54V60H53zM54,59H55V60H54zM55,59H56V60H55zM56,59H57V60H56zM57,59H58V60H57zM58,59H59V60H58zM62,59H63V60H62zM2,60H3V61H2zM4,60H5V61H4zM5,60H6V61H5zM6,60H7V61H6zM8,60H9V61H8zM10,60H11V61H10zM12,60H13V61H12zM16,60H17V61H16zM17,60H18V61H17zM19,60H20V61H19zM20,60H21V61H20zM21,60H22V61H21zM26,60H27V61H26zM27,60H28V61H27zM28,60H29V61H28zM29,60H30V61H29zM33,60H34V61H33zM34,60H35V61H34zM36,60H37V61H36zM37,60H38V61H37zM40,60H41V61H40zM42,60H43V61H42zM43,60H44V61H43zM45,60H46V61H45zM46,60H47V61H46zM48,60H49V61H48zM51,60H52V61H51zM52,60H53V61H52zM56,60H57V61H56zM57,60H58V61H57zM59,60H60V61H59zM62,60H63V61H62zM2,61H3V62H2zM8,61H9V62H8zM11,61H12V62H11zM12,61H13V62H12zM16,61H17V62H16zM18,61H19V62H18zM19,61H20V62H19zM20,61H21V62H20zM26,61H27V62H26zM28,61H29V62H28zM30,61H31V62H30zM31,61H32V62H31zM33,61H34V62H33zM34,61H35V62H34zM35,61H36V62H35zM37,61H38V62H37zM39,61H40V62H39zM42,61H43V62H42zM45,61H46V62H45zM46,61H47V62H46zM49,61H50V62H49zM51,61H52V62H51zM53,61H54V62H53zM54,61H55V62H54zM55,61H56V62H55zM56,61H57V62H56zM62,61H63V62H62zM2,62H3V63H2zM3,62H4V63H3zM4,62H5V63H4zM5,62H6V63H5zM6,62H7V63H6zM7,62H8V63H7zM8,62H9V63H8zM10,62H11V63H10zM13,62H14V63H13zM15,62H16V63H15zM16,62H17V63H16zM17,62H18V63H17zM20,62H21V63H20zM21,62H22V63H21zM22,62H23V63H22zM26,62H27V63H26zM27,62H28V63H27zM28,62H29V63H28zM35,62H36V63H35zM36,62H37V63H36zM38,62H39V63H38zM41,62H42V63H41zM44,62H45V63H44zM50,62H51V63H50zM53,62H54V63H53zM57,62H58V63H57zM60,62H61V63H60zM61,62H62V63H61zM62,62H63V63H62z" id="qr-path" fill="#000000" fill-opacity="1" fill-rule="nonzero" stroke="none" /></svg>